<svg width="258" height="184" viewBox="0 0 258 184" fill="none" xmlns="http://www.w3.org/2000/svg">
<path d="M57.9532 21.108C57.5474 18.7213 55.2836 17.1155 52.8969 17.5213C50.5102 17.9271 48.9044 20.1909 49.3103 22.5776L57.9532 21.108ZM55.7815 41.9613L60.1429 41.5225L60.1429 41.5221L55.7815 41.9613ZM58.0512 77.3764L62.4333 77.2678L62.4333 77.2672L58.0512 77.3764ZM58.1798 102.488L53.7993 102.327L53.7992 102.328L58.1798 102.488ZM56.3335 127.278L60.6983 127.683L60.6983 127.682L56.3335 127.278ZM53.3768 154.392L57.7207 154.981L57.7207 154.98L53.3768 154.392ZM51.0901 170.882L46.7304 170.425C46.4817 172.8 48.1794 174.937 50.5488 175.232C52.9182 175.526 55.0878 173.871 55.4287 171.507L51.0901 170.882ZM51.8172 164.8L47.4487 164.438L47.4487 164.438L51.8172 164.8ZM54.2197 151.501L49.9547 150.489L49.9546 150.489L54.2197 151.501ZM57.8068 138.467L61.9516 139.894L61.9518 139.893L57.8068 138.467ZM60.8331 130.055L56.7348 128.5L56.734 128.502L60.8331 130.055ZM76.2454 87.8877L72.0163 86.7345L72.0161 86.7353L76.2454 87.8877ZM80.1781 71.3336L84.4955 72.0918L84.4955 72.0915L80.1781 71.3336ZM85.2234 39.8569L81.0166 38.6248L81.0162 38.6261L85.2234 39.8569ZM86.8146 36.7316L88.3823 32.638C86.8148 32.0377 85.0421 32.3852 83.8173 33.533L86.8146 36.7316ZM88.1361 48.7471L92.5073 48.4198L92.5073 48.4197L88.1361 48.7471ZM88.4163 74.4875L84.037 74.2961L84.037 74.2967L88.4163 74.4875ZM86.9664 99.4797L82.5955 99.147L82.5955 99.1479L86.9664 99.4797ZM85.9104 117.242L90.2917 117.382L90.2917 117.382L85.9104 117.242ZM86.0813 134.017L81.7009 134.183L86.0813 134.017ZM83.822 149.05C84.3494 151.413 86.6924 152.901 89.0552 152.373C91.4179 151.846 92.9058 149.503 92.3784 147.14L83.822 149.05ZM49.3103 22.5776C49.4798 23.5744 50.1761 30.0477 51.42 42.4005L60.1429 41.5221C58.9252 29.4299 58.1884 22.4909 57.9532 21.108L49.3103 22.5776ZM51.42 42.4C52.6392 54.5196 53.3882 66.2144 53.669 77.4856L62.4333 77.2672C62.1466 65.7596 61.3825 53.8444 60.1429 41.5225L51.42 42.4ZM53.669 77.4851C53.9511 88.8629 53.9907 97.1201 53.7993 102.327L62.5603 102.649C62.7623 97.1561 62.7161 88.6722 62.4333 77.2678L53.669 77.4851ZM53.7992 102.328C53.6087 107.551 53.003 115.712 51.9688 126.873L60.6983 127.682C61.7351 116.494 62.3604 108.129 62.5604 102.648L53.7992 102.328ZM51.9688 126.873C50.9346 138.016 49.9556 146.987 49.0329 153.805L57.7207 154.98C58.6666 147.991 59.6587 138.885 60.6983 127.683L51.9688 126.873ZM49.0329 153.804C48.0993 160.701 47.339 166.183 46.7515 170.256L55.4287 171.507C56.0214 167.398 56.7856 161.888 57.7207 154.981L49.0329 153.804ZM55.4497 171.338C55.4777 171.071 55.9324 168.218 56.1857 165.162L47.4487 164.438C47.3216 165.971 47.1743 167.175 47.0466 168.112C46.9358 168.924 46.7888 169.868 46.7304 170.425L55.4497 171.338ZM56.1857 165.162C56.4286 162.233 57.1714 158.048 58.4848 152.513L49.9546 150.489C48.6041 156.18 47.7454 160.861 47.4487 164.438L56.1857 165.162ZM58.4847 152.513C59.8045 146.953 60.9615 142.77 61.9516 139.894L53.6619 137.04C52.5332 140.319 51.2988 144.826 49.9547 150.489L58.4847 152.513ZM61.9518 139.893C62.9994 136.848 63.9928 134.087 64.9322 131.608L56.734 128.502C55.757 131.08 54.7329 133.927 53.6617 137.041L61.9518 139.893ZM64.9314 131.61C65.8751 129.123 68.1886 123.262 71.891 113.982L63.7481 110.733C60.0544 119.992 57.7103 125.929 56.7348 128.5L64.9314 131.61ZM71.891 113.982C75.6299 104.61 78.4993 96.29 80.4747 89.04L72.0161 86.7353C70.153 93.5731 67.4052 101.567 63.7481 110.733L71.891 113.982ZM80.4745 89.0408C82.4074 81.952 83.7596 76.2822 84.4955 72.0918L75.8606 70.5754C75.1943 74.3693 73.9247 79.7355 72.0163 86.7345L80.4745 89.0408ZM84.4955 72.0915C85.2093 68.0252 85.8874 63.5492 86.5304 58.6669L77.8385 57.522C77.2086 62.304 76.549 66.6542 75.8606 70.5757L84.4955 72.0915ZM86.5304 58.6669C87.1643 53.8545 87.7132 50.0327 88.1777 47.1847L79.5251 45.7734C79.0399 48.7483 78.4776 52.67 77.8385 57.522L86.5304 58.6669ZM88.1777 47.1847C88.6442 44.325 89.0675 42.3288 89.4306 41.0876L81.0162 38.6261C80.4998 40.3916 80.0084 42.8103 79.5251 45.7734L88.1777 47.1847ZM89.4302 41.0889C89.5975 40.5176 89.749 40.1512 89.8574 39.9382C89.972 39.713 89.9822 39.7706 89.8119 39.9302L83.8173 33.533C82.3217 34.9344 81.5195 36.9076 81.0166 38.6248L89.4302 41.0889ZM85.2469 40.8251C84.3049 40.4644 83.7416 39.8761 83.4918 39.5801C83.218 39.2554 83.0549 38.9626 82.975 38.8077C82.8165 38.5004 82.7458 38.2623 82.7336 38.2219C82.6997 38.1096 82.7077 38.1065 82.7439 38.3103C82.8093 38.6792 82.8975 39.3219 83.0048 40.2978C83.2165 42.2223 83.47 45.1369 83.7648 49.0744L92.5073 48.4197C92.2106 44.4577 91.9481 41.4201 91.7193 39.3394C91.6064 38.3127 91.4932 37.4396 91.3762 36.7795C91.3211 36.4688 91.2425 36.0728 91.1269 35.6894C91.0738 35.5135 90.9634 35.1703 90.7663 34.7883C90.6671 34.5961 90.4851 34.2734 90.1925 33.9267C89.924 33.6085 89.3424 33.0057 88.3823 32.638L85.2469 40.8251ZM83.7648 49.0743C84.3414 56.7769 84.4353 65.1817 84.037 74.2961L92.7957 74.6789C93.2066 65.2751 93.1137 56.5196 92.5073 48.4198L83.7648 49.0743ZM84.037 74.2967C83.6353 83.5195 83.1546 91.8018 82.5955 99.147L91.3372 99.8124C91.905 92.3528 92.3909 83.9736 92.7957 74.6782L84.037 74.2967ZM82.5955 99.1479C82.0314 106.578 81.674 112.571 81.5292 117.102L90.2917 117.382C90.4307 113.035 90.7774 107.186 91.3373 99.8116L82.5955 99.1479ZM81.5292 117.102C81.3828 121.679 81.4431 127.381 81.7009 134.183L90.4616 133.851C90.208 127.16 90.1543 121.679 90.2917 117.382L81.5292 117.102ZM81.7009 134.183C81.8708 138.665 81.915 140.507 83.822 149.05L92.3784 147.14C90.5869 139.115 90.6114 137.801 90.4616 133.851L81.7009 134.183Z" fill="white"/>
<path d="M93.7711 147.741C93.7305 150.161 95.6599 152.156 98.0805 152.197C100.501 152.238 102.496 150.308 102.537 147.888L93.7711 147.741ZM104.82 54.9971L100.461 55.4603L104.82 54.9971ZM111.81 48.7401L107.689 50.2349C107.764 50.4415 107.854 50.6422 107.959 50.8352L111.81 48.7401ZM128.003 146.195L123.646 145.712C123.493 147.094 124.004 148.466 125.024 149.411L128.003 146.195ZM129.962 146.839L128.022 142.908C128.011 142.913 128.001 142.918 127.991 142.923L129.962 146.839ZM133.095 140.438L137.368 141.416L137.369 141.413L133.095 140.438ZM134.276 134.695L138.589 135.478L138.589 135.477L134.276 134.695ZM135.338 128.32L139.67 128.992L139.67 128.989L135.338 128.32ZM136.404 121.021L140.746 121.62L140.747 121.617L136.404 121.021ZM137.379 113.521L141.73 114.055L141.73 114.053L137.379 113.521ZM139.05 98.0908L134.686 97.6762L134.686 97.6783L139.05 98.0908ZM139.871 89.5485L135.508 89.1228L135.508 89.1248L139.871 89.5485ZM140.716 80.9426L136.354 80.5084L136.354 80.5111L140.716 80.9426ZM141.397 74.1247L145.758 74.5616L145.759 74.5583L141.397 74.1247ZM142.606 62.1018L138.245 61.6591L138.244 61.6616L142.606 62.1018ZM143.271 55.5676L147.632 56.0128C147.795 54.4178 147.074 52.861 145.752 51.9536L143.271 55.5676ZM158.173 20.5906L160.416 16.8245L158.173 20.5906ZM17.2746 134.695L13.3544 136.656L17.2746 134.695ZM92.4202 163.235L92.42 158.851L92.4202 163.235ZM246.983 167.618C249.404 167.618 251.367 165.656 251.367 163.235C251.367 160.814 249.404 158.851 246.983 158.851V167.618ZM104.513 39.6809L100.143 39.3423L104.513 39.6809ZM106.563 38.7504L103.335 41.7161L106.563 38.7504ZM102.537 147.888C102.532 148.192 102.495 148.424 102.482 148.499C102.465 148.602 102.449 148.68 102.44 148.717C102.424 148.79 102.412 148.831 102.416 148.816C102.423 148.791 102.444 148.72 102.49 148.57C102.516 148.486 102.774 147.656 102.889 147.279C103.241 146.13 103.737 144.465 104.309 142.306C105.454 137.988 106.902 131.723 108.147 123.643C110.639 107.483 112.32 84.0906 109.179 54.5338L100.461 55.4603C103.515 84.1978 101.869 106.827 99.4827 122.307C98.2892 130.048 96.9092 136.008 95.8352 140.058C95.2983 142.083 94.836 143.637 94.5072 144.71C94.2825 145.443 94.2691 145.475 94.1085 145.998C94.0611 146.152 94.0096 146.323 93.9677 146.474C93.9474 146.547 93.9166 146.661 93.8875 146.79C93.8832 146.81 93.7797 147.228 93.7711 147.741L102.537 147.888ZM109.179 54.5338C108.651 49.5696 108.637 43.2012 108.884 40.0194L100.143 39.3423C99.8547 43.0641 99.8773 49.9693 100.461 55.4603L109.179 54.5338ZM103.335 41.7161C103.975 42.4137 104.851 43.846 105.754 45.6954C106.609 47.4452 107.314 49.2007 107.689 50.2349L115.931 47.2454C115.466 45.9651 114.643 43.9177 113.631 41.8472C112.668 39.8763 111.34 37.471 109.791 35.7848L103.335 41.7161ZM107.959 50.8352C107.753 50.4562 107.661 50.1231 107.765 50.4306C107.801 50.5399 107.859 50.7201 107.94 50.9809C108.1 51.4967 108.324 52.2494 108.604 53.2209C109.163 55.1597 109.931 57.9211 110.827 61.3087C112.621 68.0848 114.924 77.3317 117.102 87.4758C121.508 107.993 125.231 131.415 123.646 145.712L132.36 146.678C134.123 130.769 130.051 106.017 125.674 85.6351C123.46 75.3296 121.124 65.9457 119.302 59.0649C118.391 55.6241 117.607 52.8005 117.028 50.7923C116.739 49.7902 116.498 48.9789 116.315 48.3895C116.225 48.0977 116.143 47.8399 116.073 47.6322C116.07 47.6226 115.904 47.0932 115.66 46.645L107.959 50.8352ZM125.024 149.411C125.402 149.761 125.859 150.148 126.371 150.475C126.76 150.725 127.756 151.327 129.102 151.37L129.383 142.607C129.986 142.627 130.431 142.778 130.655 142.868C130.892 142.964 131.044 143.058 131.098 143.092C131.196 143.155 131.166 143.149 130.982 142.979L125.024 149.411ZM129.102 151.37C130.025 151.399 131.002 151.223 131.933 150.754L127.991 142.923C128.491 142.671 128.988 142.595 129.383 142.607L129.102 151.37ZM131.902 150.769C132.674 150.388 133.18 149.86 133.33 149.705C133.566 149.459 133.773 149.205 133.939 148.99C134.276 148.554 134.644 148.018 135.025 147.432L127.677 142.65C127.517 142.896 127.379 143.101 127.263 143.269C127.145 143.439 127.059 143.555 127.002 143.629C126.974 143.665 126.959 143.683 126.957 143.687C126.952 143.691 126.971 143.669 127.01 143.628C127.045 143.592 127.13 143.506 127.259 143.399C127.326 143.344 127.419 143.271 127.536 143.191C127.651 143.113 127.814 143.01 128.022 142.908L131.902 150.769ZM135.025 147.432C136.128 145.736 136.858 143.647 137.368 141.416L128.822 139.461C128.428 141.182 127.995 142.161 127.677 142.65L135.025 147.432ZM137.369 141.413C137.833 139.378 138.24 137.4 138.589 135.478L129.963 133.911C129.639 135.696 129.259 137.546 128.822 139.464L137.369 141.413ZM138.589 135.477C138.934 133.577 139.294 131.414 139.67 128.992L131.006 127.648C130.639 130.016 130.291 132.103 129.963 133.912L138.589 135.477ZM139.67 128.989C140.044 126.57 140.402 124.114 140.746 121.62L132.062 120.422C131.724 122.87 131.372 125.28 131.006 127.651L139.67 128.989ZM140.747 121.617C141.089 119.125 141.417 116.604 141.73 114.055L133.028 112.987C132.72 115.495 132.398 117.974 132.061 120.424L140.747 121.617ZM141.73 114.053C142.042 111.506 142.338 108.936 142.619 106.343L133.903 105.399C133.626 107.953 133.335 110.482 133.028 112.989L141.73 114.053ZM142.619 106.343C142.9 103.75 143.165 101.137 143.414 98.5032L134.686 97.6783C134.441 100.272 134.18 102.846 133.903 105.399L142.619 106.343ZM143.414 98.5053C143.662 95.893 143.935 93.0486 144.234 89.9722L135.508 89.1248C135.209 92.2065 134.935 95.057 134.686 97.6762L143.414 98.5053ZM144.234 89.9743C144.534 86.8969 144.816 84.0302 145.078 81.374L136.354 80.5111C136.091 83.1715 135.809 86.0421 135.508 89.1228L144.234 89.9743ZM145.078 81.3767C145.342 78.7212 145.569 76.4495 145.758 74.5616L137.035 73.6877C136.846 75.5779 136.619 77.8516 136.354 80.5084L145.078 81.3767ZM145.759 74.5583C145.946 72.6714 146.141 70.7272 146.343 68.7255L137.62 67.8452C137.418 69.8512 137.223 71.7998 137.035 73.691L145.759 74.5583ZM146.343 68.7255C146.545 66.7218 146.753 64.6605 146.967 62.5419L138.244 61.6616C138.031 63.7801 137.823 65.8413 137.62 67.8452L146.343 68.7255ZM146.967 62.5444C147.182 60.4247 147.404 58.2475 147.632 56.0128L138.91 55.1223C138.682 57.3586 138.46 59.5375 138.245 61.6591L146.967 62.5444ZM145.752 51.9536C144.191 51.2817 141.635 51.5005 140.846 51.9158C140.518 52.1565 140.061 52.5821 139.917 52.7451C139.693 53.0103 139.552 53.2448 139.526 53.289C139.434 53.4396 139.37 53.565 139.356 53.5923C139.311 53.6805 139.276 53.7579 139.26 53.7911C139.222 53.8743 139.181 53.9673 139.143 54.0555C139.063 54.2399 138.957 54.491 138.832 54.7964C138.58 55.4101 138.236 56.2777 137.841 57.3269C137.054 59.418 136.051 62.2811 135.193 65.322C134.347 68.3224 133.587 71.6886 133.381 74.7289C133.278 76.2497 133.301 77.8591 133.604 79.3819C133.904 80.8842 134.545 82.6371 135.95 84.0422L142.149 77.843C142.4 78.0933 142.306 78.1862 142.202 77.6678C142.103 77.1699 142.055 76.3979 142.128 75.3209C142.274 73.1658 142.85 70.4713 143.631 67.7016C144.401 64.9724 145.316 62.356 146.046 60.4137C146.41 59.4463 146.724 58.6588 146.943 58.1234C147.054 57.8543 147.137 57.6573 147.188 57.5383C147.216 57.4748 147.226 57.4522 147.224 57.4582C147.222 57.4614 147.217 57.4714 147.21 57.4863C147.204 57.4988 147.19 57.5295 147.169 57.5703C147.16 57.588 147.1 57.7063 147.011 57.8523C146.986 57.8942 146.846 58.1271 146.623 58.3913C146.48 58.5538 146.023 58.979 145.695 59.2195C144.906 59.6345 142.351 59.8533 140.79 59.1816L145.752 51.9536ZM135.95 84.0422C138.63 86.7219 142.063 87.1936 145.211 86.2592C148.066 85.4117 150.71 83.4433 152.993 81.1875C157.629 76.6065 162.131 69.4808 165.433 61.7709C168.738 54.0537 171.046 45.2771 170.881 37.2908C170.715 29.2749 167.986 21.3336 160.416 16.8245L155.929 24.3566C159.944 26.7479 161.985 31.1686 162.116 37.4722C162.247 43.8053 160.378 51.3058 157.374 58.3193C154.367 65.34 150.427 71.3986 146.831 74.9514C144.998 76.7626 143.579 77.5984 142.716 77.8546C142.146 78.0239 142.205 77.8988 142.149 77.843L135.95 84.0422ZM160.416 16.8245C143.889 6.98074 124.151 5.41651 104.722 9.36393C85.2911 13.3117 65.8681 22.8182 49.5501 35.5786C17.3025 60.7956 -4.70076 100.569 13.3544 136.656L21.1948 132.733C6.02342 102.41 23.7847 66.8558 54.9505 42.4847C70.3392 30.4511 88.5351 21.5988 106.468 17.9554C124.402 14.3116 141.772 15.9238 155.929 24.3566L160.416 16.8245ZM13.3544 136.656C20.7584 151.454 35.6626 159.08 50.6127 163.059C65.6428 167.059 81.6056 167.619 92.4203 167.618L92.42 158.851C81.7967 158.852 66.7626 158.285 52.8675 154.586C38.8923 150.867 26.9428 144.222 21.1948 132.733L13.3544 136.656ZM92.4203 167.618C104.319 167.618 93.6715 167.618 111.48 167.618V158.851C93.6737 158.851 104.318 158.851 92.42 158.851L92.4203 167.618ZM111.48 167.618C111.536 167.618 111.592 167.618 111.647 167.618C111.703 167.618 111.759 167.618 111.814 167.618C111.87 167.618 111.925 167.618 111.981 167.618C112.036 167.618 112.092 167.618 112.147 167.618C112.203 167.618 112.258 167.618 112.313 167.618C112.369 167.618 112.424 167.618 112.479 167.618C112.535 167.618 112.59 167.618 112.645 167.618C112.7 167.618 112.755 167.618 112.81 167.618C112.866 167.618 112.921 167.618 112.976 167.618C113.031 167.618 113.086 167.618 113.141 167.618C113.196 167.618 113.251 167.618 113.306 167.618C113.361 167.618 113.416 167.618 113.47 167.618C113.525 167.618 113.58 167.618 113.635 167.618C113.69 167.618 113.744 167.618 113.799 167.618C113.854 167.618 113.909 167.618 113.963 167.618C114.018 167.618 114.073 167.618 114.127 167.618C114.182 167.618 114.236 167.618 114.291 167.618C114.345 167.618 114.4 167.618 114.454 167.618C114.509 167.618 114.563 167.618 114.618 167.618C114.672 167.618 114.727 167.618 114.781 167.618C114.835 167.618 114.89 167.618 114.944 167.618C114.998 167.618 115.053 167.618 115.107 167.618C115.161 167.618 115.215 167.618 115.27 167.618C115.324 167.618 115.378 167.618 115.432 167.618C115.486 167.618 115.541 167.618 115.595 167.618C115.649 167.618 115.703 167.618 115.757 167.618C115.811 167.618 115.865 167.618 115.919 167.618C115.973 167.618 116.027 167.618 116.081 167.618C116.135 167.618 116.189 167.618 116.243 167.618C116.297 167.618 116.351 167.618 116.405 167.618C116.459 167.618 116.512 167.618 116.566 167.618C116.62 167.618 116.674 167.618 116.728 167.618C116.781 167.618 116.835 167.618 116.889 167.618C116.943 167.618 116.997 167.618 117.05 167.618C117.104 167.618 117.158 167.618 117.211 167.618C117.265 167.618 117.319 167.618 117.372 167.618C117.426 167.618 117.48 167.618 117.533 167.618C117.587 167.618 117.64 167.618 117.694 167.618C117.748 167.618 117.801 167.618 117.855 167.618C117.908 167.618 117.962 167.618 118.015 167.618C118.069 167.618 118.122 167.618 118.176 167.618C118.229 167.618 118.283 167.618 118.336 167.618C118.39 167.618 118.443 167.618 118.496 167.618C118.55 167.618 118.603 167.618 118.657 167.618C118.71 167.618 118.763 167.618 118.817 167.618C118.87 167.618 118.924 167.618 118.977 167.618C119.03 167.618 119.084 167.618 119.137 167.618C119.19 167.618 119.244 167.618 119.297 167.618C119.35 167.618 119.403 167.618 119.457 167.618C119.51 167.618 119.563 167.618 119.617 167.618C119.67 167.618 119.723 167.618 119.776 167.618C119.83 167.618 119.883 167.618 119.936 167.618C119.989 167.618 120.042 167.618 120.096 167.618C120.149 167.618 120.202 167.618 120.255 167.618C120.308 167.618 120.362 167.618 120.415 167.618C120.468 167.618 120.521 167.618 120.574 167.618C120.627 167.618 120.681 167.618 120.734 167.618C120.787 167.618 120.84 167.618 120.893 167.618C120.946 167.618 121 167.618 121.053 167.618C121.106 167.618 121.159 167.618 121.212 167.618C121.265 167.618 121.318 167.618 121.371 167.618C121.425 167.618 121.478 167.618 121.531 167.618C121.584 167.618 121.637 167.618 121.69 167.618C121.743 167.618 121.796 167.618 121.849 167.618C121.903 167.618 121.956 167.618 122.009 167.618C122.062 167.618 122.115 167.618 122.168 167.618C122.221 167.618 122.274 167.618 122.327 167.618C122.381 167.618 122.434 167.618 122.487 167.618C122.54 167.618 122.593 167.618 122.646 167.618C122.699 167.618 122.752 167.618 122.805 167.618C122.859 167.618 122.912 167.618 122.965 167.618C123.018 167.618 123.071 167.618 123.124 167.618C123.177 167.618 123.23 167.618 123.284 167.618C123.337 167.618 123.39 167.618 123.443 167.618C123.496 167.618 123.549 167.618 123.603 167.618C123.656 167.618 123.709 167.618 123.762 167.618C123.815 167.618 123.868 167.618 123.922 167.618C123.975 167.618 124.028 167.618 124.081 167.618C124.134 167.618 124.188 167.618 124.241 167.618C124.294 167.618 124.347 167.618 124.4 167.618C124.454 167.618 124.507 167.618 124.56 167.618C124.613 167.618 124.667 167.618 124.72 167.618C124.773 167.618 124.826 167.618 124.88 167.618C124.933 167.618 124.986 167.618 125.04 167.618C125.093 167.618 125.146 167.618 125.2 167.618C125.253 167.618 125.306 167.618 125.36 167.618C125.413 167.618 125.466 167.618 125.52 167.618C125.573 167.618 125.627 167.618 125.68 167.618C125.733 167.618 125.787 167.618 125.84 167.618C125.894 167.618 125.947 167.618 126.001 167.618C126.054 167.618 126.108 167.618 126.161 167.618C126.215 167.618 126.268 167.618 126.322 167.618C126.375 167.618 126.429 167.618 126.482 167.618C126.536 167.618 126.589 167.618 126.643 167.618C126.696 167.618 126.75 167.618 126.804 167.618C126.857 167.618 126.911 167.618 126.965 167.618C127.018 167.618 127.072 167.618 127.126 167.618C127.179 167.618 127.233 167.618 127.287 167.618C127.341 167.618 127.394 167.618 127.448 167.618C127.502 167.618 127.556 167.618 127.609 167.618C127.663 167.618 127.717 167.618 127.771 167.618C127.825 167.618 127.879 167.618 127.933 167.618C127.987 167.618 128.04 167.618 128.094 167.618C128.148 167.618 128.202 167.618 128.256 167.618C128.31 167.618 128.364 167.618 128.418 167.618C128.472 167.618 128.526 167.618 128.581 167.618C128.635 167.618 128.689 167.618 128.743 167.618C128.797 167.618 128.851 167.618 128.905 167.618C128.96 167.618 129.014 167.618 129.068 167.618C129.122 167.618 129.177 167.618 129.231 167.618C129.285 167.618 129.339 167.618 129.394 167.618C129.448 167.618 129.503 167.618 129.557 167.618C129.611 167.618 129.666 167.618 129.72 167.618C129.775 167.618 129.829 167.618 129.884 167.618C129.938 167.618 129.993 167.618 130.047 167.618C130.102 167.618 130.156 167.618 130.211 167.618C130.266 167.618 130.32 167.618 130.375 167.618C130.43 167.618 130.485 167.618 130.539 167.618C130.594 167.618 130.649 167.618 130.704 167.618C130.758 167.618 130.813 167.618 130.868 167.618C130.923 167.618 130.978 167.618 131.033 167.618C131.088 167.618 131.143 167.618 131.198 167.618C131.253 167.618 131.308 167.618 131.363 167.618C131.418 167.618 131.473 167.618 131.529 167.618C131.584 167.618 131.639 167.618 131.694 167.618C131.749 167.618 131.805 167.618 131.86 167.618C131.915 167.618 131.971 167.618 132.026 167.618C132.081 167.618 132.137 167.618 132.192 167.618C132.248 167.618 132.303 167.618 132.359 167.618C132.414 167.618 132.47 167.618 132.525 167.618C132.581 167.618 132.637 167.618 132.692 167.618C132.748 167.618 132.804 167.618 132.859 167.618C132.915 167.618 132.971 167.618 133.027 167.618C133.083 167.618 133.139 167.618 133.194 167.618C133.25 167.618 133.306 167.618 133.362 167.618C133.418 167.618 133.474 167.618 133.531 167.618C133.587 167.618 133.643 167.618 133.699 167.618C133.755 167.618 133.811 167.618 133.868 167.618C133.924 167.618 133.98 167.618 134.037 167.618C134.093 167.618 134.149 167.618 134.206 167.618C134.262 167.618 134.319 167.618 134.375 167.618C134.432 167.618 134.488 167.618 134.545 167.618C134.602 167.618 134.658 167.618 134.715 167.618C134.772 167.618 134.828 167.618 134.885 167.618C134.942 167.618 134.999 167.618 135.056 167.618C135.113 167.618 135.17 167.618 135.227 167.618C135.284 167.618 135.341 167.618 135.398 167.618C135.455 167.618 135.512 167.618 135.569 167.618C135.626 167.618 135.684 167.618 135.741 167.618C135.798 167.618 135.856 167.618 135.913 167.618C135.97 167.618 136.028 167.618 136.085 167.618C136.143 167.618 136.2 167.618 136.258 167.618C136.316 167.618 136.373 167.618 136.431 167.618C136.489 167.618 136.547 167.618 136.604 167.618C136.662 167.618 136.72 167.618 136.778 167.618C136.836 167.618 136.894 167.618 136.952 167.618C137.01 167.618 137.068 167.618 137.126 167.618C137.184 167.618 137.243 167.618 137.301 167.618C137.359 167.618 137.417 167.618 137.476 167.618C137.534 167.618 137.592 167.618 137.651 167.618C137.709 167.618 137.768 167.618 137.827 167.618C137.885 167.618 137.944 167.618 138.003 167.618C138.061 167.618 138.12 167.618 138.179 167.618C138.238 167.618 138.297 167.618 138.356 167.618C138.414 167.618 138.473 167.618 138.533 167.618C138.592 167.618 138.651 167.618 138.71 167.618C138.769 167.618 138.828 167.618 138.888 167.618C138.947 167.618 139.006 167.618 139.066 167.618C139.125 167.618 139.185 167.618 139.244 167.618C139.304 167.618 139.363 167.618 139.423 167.618C139.483 167.618 139.543 167.618 139.602 167.618C139.662 167.618 139.722 167.618 139.782 167.618C139.842 167.618 139.902 167.618 139.962 167.618C140.022 167.618 140.082 167.618 140.142 167.618C140.203 167.618 140.263 167.618 140.323 167.618C140.383 167.618 140.444 167.618 140.504 167.618C140.565 167.618 140.625 167.618 140.686 167.618C140.746 167.618 140.807 167.618 140.868 167.618C140.929 167.618 140.989 167.618 141.05 167.618C141.111 167.618 141.172 167.618 141.233 167.618C141.294 167.618 141.355 167.618 141.416 167.618C141.477 167.618 141.539 167.618 141.6 167.618C141.661 167.618 141.723 167.618 141.784 167.618C141.845 167.618 141.907 167.618 141.968 167.618C142.03 167.618 142.092 167.618 142.153 167.618C142.215 167.618 142.277 167.618 142.339 167.618C142.401 167.618 142.462 167.618 142.524 167.618C142.586 167.618 142.649 167.618 142.711 167.618C142.773 167.618 142.835 167.618 142.897 167.618C142.96 167.618 143.022 167.618 143.084 167.618C143.147 167.618 143.209 167.618 143.272 167.618C143.335 167.618 143.397 167.618 143.46 167.618C143.523 167.618 143.586 167.618 143.649 167.618C143.711 167.618 143.774 167.618 143.837 167.618C143.901 167.618 143.964 167.618 144.027 167.618C144.09 167.618 144.153 167.618 144.217 167.618C144.28 167.618 144.344 167.618 144.407 167.618C144.471 167.618 144.534 167.618 144.598 167.618C144.662 167.618 144.725 167.618 144.789 167.618C144.853 167.618 144.917 167.618 144.981 167.618C145.045 167.618 145.109 167.618 145.173 167.618C145.237 167.618 145.302 167.618 145.366 167.618C145.43 167.618 145.495 167.618 145.559 167.618C145.624 167.618 145.688 167.618 145.753 167.618C145.818 167.618 145.882 167.618 145.947 167.618C146.012 167.618 146.077 167.618 146.142 167.618C146.207 167.618 146.272 167.618 146.337 167.618C146.402 167.618 146.468 167.618 146.533 167.618C146.598 167.618 146.664 167.618 146.729 167.618C146.795 167.618 146.861 167.618 146.926 167.618C146.992 167.618 147.058 167.618 147.124 167.618C147.189 167.618 147.255 167.618 147.321 167.618C147.387 167.618 147.454 167.618 147.52 167.618C147.586 167.618 147.652 167.618 147.719 167.618C147.785 167.618 147.852 167.618 147.918 167.618C147.985 167.618 148.051 167.618 148.118 167.618C148.185 167.618 148.252 167.618 148.319 167.618C148.386 167.618 148.453 167.618 148.52 167.618C148.587 167.618 148.654 167.618 148.722 167.618C148.789 167.618 148.856 167.618 148.924 167.618C148.991 167.618 149.059 167.618 149.127 167.618C149.194 167.618 149.262 167.618 149.33 167.618C149.398 167.618 149.466 167.618 149.534 167.618C149.602 167.618 149.67 167.618 149.738 167.618C149.807 167.618 149.875 167.618 149.943 167.618C150.012 167.618 150.08 167.618 150.149 167.618C150.218 167.618 150.286 167.618 150.355 167.618C150.424 167.618 150.493 167.618 150.562 167.618C150.631 167.618 150.7 167.618 150.769 167.618C150.839 167.618 150.908 167.618 150.977 167.618C151.047 167.618 151.116 167.618 151.186 167.618C151.256 167.618 151.325 167.618 151.395 167.618C151.465 167.618 151.535 167.618 151.605 167.618C151.675 167.618 151.745 167.618 151.815 167.618C151.886 167.618 151.956 167.618 152.026 167.618C152.097 167.618 152.167 167.618 152.238 167.618C152.309 167.618 152.379 167.618 152.45 167.618C152.521 167.618 152.592 167.618 152.663 167.618C152.734 167.618 152.805 167.618 152.876 167.618C152.948 167.618 153.019 167.618 153.091 167.618C153.162 167.618 153.234 167.618 153.305 167.618C153.377 167.618 153.449 167.618 153.521 167.618C153.593 167.618 153.665 167.618 153.737 167.618C153.809 167.618 153.881 167.618 153.953 167.618C154.026 167.618 154.098 167.618 154.171 167.618C154.243 167.618 154.316 167.618 154.389 167.618C154.461 167.618 154.534 167.618 154.607 167.618C154.68 167.618 154.753 167.618 154.826 167.618C154.9 167.618 154.973 167.618 155.046 167.618C155.12 167.618 155.193 167.618 155.267 167.618C155.341 167.618 155.414 167.618 155.488 167.618C155.562 167.618 155.636 167.618 155.71 167.618C155.784 167.618 155.858 167.618 155.933 167.618C156.007 167.618 156.082 167.618 156.156 167.618C156.231 167.618 156.305 167.618 156.38 167.618C156.455 167.618 156.53 167.618 156.605 167.618C156.68 167.618 156.755 167.618 156.83 167.618C156.905 167.618 156.981 167.618 157.056 167.618C157.132 167.618 157.207 167.618 157.283 167.618C157.359 167.618 157.434 167.618 157.51 167.618C157.586 167.618 157.662 167.618 157.738 167.618C157.815 167.618 157.891 167.618 157.967 167.618C158.044 167.618 158.12 167.618 158.197 167.618C158.274 167.618 158.35 167.618 158.427 167.618C158.504 167.618 158.581 167.618 158.658 167.618C158.735 167.618 158.813 167.618 158.89 167.618C158.967 167.618 159.045 167.618 159.122 167.618C159.2 167.618 159.278 167.618 159.356 167.618C159.433 167.618 159.511 167.618 159.589 167.618C159.668 167.618 159.746 167.618 159.824 167.618C159.902 167.618 159.981 167.618 160.059 167.618C160.138 167.618 160.217 167.618 160.296 167.618C160.374 167.618 160.453 167.618 160.533 167.618C160.612 167.618 160.691 167.618 160.77 167.618C160.85 167.618 160.929 167.618 161.009 167.618C161.088 167.618 161.168 167.618 161.248 167.618C161.328 167.618 161.408 167.618 161.488 167.618C161.568 167.618 161.648 167.618 161.728 167.618C161.809 167.618 161.889 167.618 161.97 167.618C162.05 167.618 162.131 167.618 162.212 167.618C162.293 167.618 162.374 167.618 162.455 167.618C162.536 167.618 162.617 167.618 162.699 167.618C162.78 167.618 162.862 167.618 162.943 167.618C163.025 167.618 163.107 167.618 163.189 167.618C163.271 167.618 163.353 167.618 163.435 167.618C163.517 167.618 163.599 167.618 163.682 167.618C163.764 167.618 163.847 167.618 163.93 167.618C164.012 167.618 164.095 167.618 164.178 167.618C164.261 167.618 164.344 167.618 164.428 167.618C164.511 167.618 164.594 167.618 164.678 167.618C164.761 167.618 164.845 167.618 164.929 167.618C165.013 167.618 165.096 167.618 165.181 167.618C165.265 167.618 165.349 167.618 165.433 167.618C165.518 167.618 165.602 167.618 165.687 167.618C165.771 167.618 165.856 167.618 165.941 167.618C166.026 167.618 166.111 167.618 166.196 167.618C166.281 167.618 166.367 167.618 166.452 167.618C166.537 167.618 166.623 167.618 166.709 167.618C166.794 167.618 166.88 167.618 166.966 167.618C167.052 167.618 167.139 167.618 167.225 167.618C167.311 167.618 167.398 167.618 167.484 167.618C167.571 167.618 167.658 167.618 167.744 167.618C167.831 167.618 167.918 167.618 168.005 167.618C168.093 167.618 168.18 167.618 168.267 167.618C168.355 167.618 168.442 167.618 168.53 167.618C168.618 167.618 168.706 167.618 168.794 167.618C168.882 167.618 168.97 167.618 169.058 167.618C169.147 167.618 169.235 167.618 169.324 167.618C169.412 167.618 169.501 167.618 169.59 167.618C169.679 167.618 169.768 167.618 169.857 167.618C169.946 167.618 170.036 167.618 170.125 167.618C170.215 167.618 170.304 167.618 170.394 167.618C170.484 167.618 170.574 167.618 170.664 167.618C170.754 167.618 170.844 167.618 170.934 167.618C171.025 167.618 171.115 167.618 171.206 167.618C171.297 167.618 171.388 167.618 171.479 167.618C171.57 167.618 171.661 167.618 171.752 167.618C171.843 167.618 171.935 167.618 172.026 167.618C172.118 167.618 172.21 167.618 172.302 167.618C172.394 167.618 172.486 167.618 172.578 167.618C172.67 167.618 172.762 167.618 172.855 167.618C172.947 167.618 173.04 167.618 173.133 167.618C173.226 167.618 173.319 167.618 173.412 167.618C173.505 167.618 173.598 167.618 173.692 167.618C173.785 167.618 173.879 167.618 173.973 167.618C174.066 167.618 174.16 167.618 174.254 167.618C174.348 167.618 174.443 167.618 174.537 167.618C174.631 167.618 174.726 167.618 174.821 167.618C174.915 167.618 175.01 167.618 175.105 167.618C175.2 167.618 175.295 167.618 175.391 167.618C175.486 167.618 175.582 167.618 175.677 167.618C175.773 167.618 175.869 167.618 175.965 167.618C176.061 167.618 176.157 167.618 176.253 167.618C176.35 167.618 176.446 167.618 176.543 167.618C176.639 167.618 176.736 167.618 176.833 167.618C176.93 167.618 177.027 167.618 177.124 167.618C177.222 167.618 177.319 167.618 177.417 167.618C177.514 167.618 177.612 167.618 177.71 167.618C177.808 167.618 177.906 167.618 178.005 167.618C178.103 167.618 178.201 167.618 178.3 167.618C178.398 167.618 178.497 167.618 178.596 167.618C178.695 167.618 178.794 167.618 178.893 167.618C178.993 167.618 179.092 167.618 179.192 167.618C179.291 167.618 179.391 167.618 179.491 167.618C179.591 167.618 179.691 167.618 179.791 167.618C179.892 167.618 179.992 167.618 180.093 167.618C180.193 167.618 180.294 167.618 180.395 167.618C180.496 167.618 180.597 167.618 180.699 167.618C180.8 167.618 180.901 167.618 181.003 167.618C181.105 167.618 181.206 167.618 181.308 167.618C181.41 167.618 181.512 167.618 181.615 167.618C181.717 167.618 181.82 167.618 181.922 167.618C182.025 167.618 182.128 167.618 182.231 167.618C182.334 167.618 182.437 167.618 182.54 167.618C182.644 167.618 182.747 167.618 182.851 167.618C182.955 167.618 183.059 167.618 183.163 167.618C183.267 167.618 183.371 167.618 183.475 167.618C183.58 167.618 183.685 167.618 183.789 167.618C183.894 167.618 183.999 167.618 184.104 167.618C184.209 167.618 184.315 167.618 184.42 167.618C184.526 167.618 184.631 167.618 184.737 167.618C184.843 167.618 184.949 167.618 185.055 167.618C185.161 167.618 185.268 167.618 185.374 167.618C185.481 167.618 185.588 167.618 185.694 167.618C185.801 167.618 185.908 167.618 186.016 167.618C186.123 167.618 186.23 167.618 186.338 167.618C186.446 167.618 186.554 167.618 186.662 167.618C186.77 167.618 186.878 167.618 186.986 167.618C187.095 167.618 187.203 167.618 187.312 167.618C187.421 167.618 187.529 167.618 187.639 167.618C187.748 167.618 187.857 167.618 187.966 167.618C188.076 167.618 188.186 167.618 188.295 167.618C188.405 167.618 188.515 167.618 188.625 167.618C188.736 167.618 188.846 167.618 188.957 167.618C189.067 167.618 189.178 167.618 189.289 167.618C189.4 167.618 189.511 167.618 189.622 167.618C189.734 167.618 189.845 167.618 189.957 167.618C190.069 167.618 190.181 167.618 190.293 167.618C190.405 167.618 190.517 167.618 190.63 167.618C190.742 167.618 190.855 167.618 190.967 167.618C191.08 167.618 191.193 167.618 191.307 167.618C191.42 167.618 191.533 167.618 191.647 167.618C191.76 167.618 191.874 167.618 191.988 167.618C192.102 167.618 192.216 167.618 192.331 167.618C192.445 167.618 192.56 167.618 192.675 167.618C192.789 167.618 192.904 167.618 193.019 167.618C193.135 167.618 193.25 167.618 193.365 167.618C193.481 167.618 193.597 167.618 193.713 167.618C193.829 167.618 193.945 167.618 194.061 167.618C194.177 167.618 194.294 167.618 194.411 167.618C194.527 167.618 194.644 167.618 194.761 167.618C194.878 167.618 194.996 167.618 195.113 167.618C195.231 167.618 195.348 167.618 195.466 167.618C195.584 167.618 195.702 167.618 195.82 167.618C195.939 167.618 196.057 167.618 196.176 167.618C196.295 167.618 196.413 167.618 196.533 167.618C196.652 167.618 196.771 167.618 196.89 167.618C197.01 167.618 197.13 167.618 197.249 167.618C197.369 167.618 197.489 167.618 197.61 167.618C197.73 167.618 197.851 167.618 197.971 167.618C198.092 167.618 198.213 167.618 198.334 167.618C198.455 167.618 198.576 167.618 198.698 167.618C198.819 167.618 198.941 167.618 199.063 167.618C199.185 167.618 199.307 167.618 199.429 167.618C199.552 167.618 199.674 167.618 199.797 167.618C199.92 167.618 200.042 167.618 200.166 167.618C200.289 167.618 200.412 167.618 200.536 167.618C200.659 167.618 200.783 167.618 200.907 167.618C201.031 167.618 201.155 167.618 201.279 167.618C201.404 167.618 201.528 167.618 201.653 167.618C201.778 167.618 201.903 167.618 202.028 167.618C202.153 167.618 202.279 167.618 202.405 167.618C202.53 167.618 202.656 167.618 202.782 167.618C202.908 167.618 203.034 167.618 203.161 167.618C203.287 167.618 203.414 167.618 203.541 167.618C203.668 167.618 203.795 167.618 203.922 167.618C204.05 167.618 204.177 167.618 204.305 167.618C204.433 167.618 204.56 167.618 204.689 167.618C204.817 167.618 204.945 167.618 205.074 167.618C205.202 167.618 205.331 167.618 205.46 167.618C205.589 167.618 205.718 167.618 205.848 167.618C205.977 167.618 206.107 167.618 206.237 167.618C206.367 167.618 206.497 167.618 206.627 167.618C206.758 167.618 206.888 167.618 207.019 167.618C207.15 167.618 207.281 167.618 207.412 167.618C207.543 167.618 207.674 167.618 207.806 167.618C207.938 167.618 208.069 167.618 208.201 167.618C208.333 167.618 208.466 167.618 208.598 167.618C208.731 167.618 208.863 167.618 208.996 167.618C209.129 167.618 209.262 167.618 209.396 167.618C209.529 167.618 209.663 167.618 209.797 167.618C209.93 167.618 210.064 167.618 210.199 167.618C210.333 167.618 210.467 167.618 210.602 167.618C210.737 167.618 210.872 167.618 211.007 167.618C211.142 167.618 211.277 167.618 211.413 167.618C211.549 167.618 211.684 167.618 211.82 167.618C211.956 167.618 212.093 167.618 212.229 167.618C212.366 167.618 212.502 167.618 212.639 167.618C212.776 167.618 212.913 167.618 213.051 167.618C213.188 167.618 213.326 167.618 213.464 167.618C213.601 167.618 213.739 167.618 213.878 167.618C214.016 167.618 214.155 167.618 214.293 167.618C214.432 167.618 214.571 167.618 214.71 167.618C214.849 167.618 214.989 167.618 215.129 167.618C215.268 167.618 215.408 167.618 215.548 167.618C215.688 167.618 215.829 167.618 215.969 167.618C216.11 167.618 216.251 167.618 216.392 167.618C216.533 167.618 216.674 167.618 216.815 167.618C216.957 167.618 217.099 167.618 217.241 167.618C217.383 167.618 217.525 167.618 217.667 167.618C217.81 167.618 217.952 167.618 218.095 167.618C218.238 167.618 218.381 167.618 218.525 167.618C218.668 167.618 218.812 167.618 218.955 167.618C219.099 167.618 219.243 167.618 219.388 167.618C219.532 167.618 219.676 167.618 219.821 167.618C219.966 167.618 220.111 167.618 220.256 167.618C220.401 167.618 220.547 167.618 220.693 167.618C220.838 167.618 220.984 167.618 221.13 167.618C221.277 167.618 221.423 167.618 221.57 167.618C221.716 167.618 221.863 167.618 222.01 167.618C222.157 167.618 222.305 167.618 222.452 167.618C222.6 167.618 222.748 167.618 222.896 167.618C223.044 167.618 223.192 167.618 223.341 167.618C223.49 167.618 223.638 167.618 223.787 167.618C223.936 167.618 224.086 167.618 224.235 167.618C224.385 167.618 224.535 167.618 224.685 167.618C224.835 167.618 224.985 167.618 225.135 167.618C225.286 167.618 225.437 167.618 225.588 167.618C225.739 167.618 225.89 167.618 226.041 167.618C226.193 167.618 226.345 167.618 226.497 167.618C226.648 167.618 226.801 167.618 226.953 167.618C227.106 167.618 227.258 167.618 227.411 167.618C227.564 167.618 227.717 167.618 227.871 167.618C228.024 167.618 228.178 167.618 228.332 167.618C228.486 167.618 228.64 167.618 228.794 167.618C228.949 167.618 229.104 167.618 229.258 167.618C229.413 167.618 229.569 167.618 229.724 167.618C229.879 167.618 230.035 167.618 230.191 167.618C230.347 167.618 230.503 167.618 230.659 167.618C230.816 167.618 230.973 167.618 231.129 167.618C231.286 167.618 231.444 167.618 231.601 167.618C231.758 167.618 231.916 167.618 232.074 167.618C232.232 167.618 232.39 167.618 232.549 167.618C232.707 167.618 232.866 167.618 233.025 167.618C233.183 167.618 233.343 167.618 233.502 167.618C233.662 167.618 233.821 167.618 233.981 167.618C234.141 167.618 234.301 167.618 234.462 167.618C234.622 167.618 234.783 167.618 234.944 167.618C235.105 167.618 235.266 167.618 235.428 167.618C235.589 167.618 235.751 167.618 235.913 167.618C236.075 167.618 236.237 167.618 236.4 167.618C236.562 167.618 236.725 167.618 236.888 167.618C237.051 167.618 237.214 167.618 237.378 167.618C237.541 167.618 237.705 167.618 237.869 167.618C238.033 167.618 238.197 167.618 238.362 167.618C238.527 167.618 238.691 167.618 238.856 167.618C239.022 167.618 239.187 167.618 239.353 167.618C239.518 167.618 239.684 167.618 239.85 167.618C240.016 167.618 240.183 167.618 240.349 167.618C240.516 167.618 240.683 167.618 240.85 167.618C241.017 167.618 241.185 167.618 241.352 167.618C241.52 167.618 241.688 167.618 241.856 167.618C242.025 167.618 242.193 167.618 242.362 167.618C242.531 167.618 242.7 167.618 242.869 167.618C243.038 167.618 243.208 167.618 243.378 167.618C243.547 167.618 243.718 167.618 243.888 167.618C244.058 167.618 244.229 167.618 244.4 167.618C244.571 167.618 244.742 167.618 244.913 167.618C245.085 167.618 245.256 167.618 245.428 167.618C245.6 167.618 245.773 167.618 245.945 167.618C246.118 167.618 246.29 167.618 246.463 167.618C246.636 167.618 246.81 167.618 246.983 167.618V158.851C246.81 158.851 246.636 158.851 246.463 158.851C246.29 158.851 246.118 158.851 245.945 158.851C245.773 158.851 245.6 158.851 245.428 158.851C245.256 158.851 245.085 158.851 244.913 158.851C244.742 158.851 244.571 158.851 244.4 158.851C244.229 158.851 244.058 158.851 243.888 158.851C243.718 158.851 243.547 158.851 243.378 158.851C243.208 158.851 243.038 158.851 242.869 158.851C242.7 158.851 242.531 158.851 242.362 158.851C242.193 158.851 242.025 158.851 241.856 158.851C241.688 158.851 241.52 158.851 241.352 158.851C241.185 158.851 241.017 158.851 240.85 158.851C240.683 158.851 240.516 158.851 240.349 158.851C240.183 158.851 240.016 158.851 239.85 158.851C239.684 158.851 239.518 158.851 239.353 158.851C239.187 158.851 239.022 158.851 238.856 158.851C238.691 158.851 238.527 158.851 238.362 158.851C238.197 158.851 238.033 158.851 237.869 158.851C237.705 158.851 237.541 158.851 237.378 158.851C237.214 158.851 237.051 158.851 236.888 158.851C236.725 158.851 236.562 158.851 236.4 158.851C236.237 158.851 236.075 158.851 235.913 158.851C235.751 158.851 235.589 158.851 235.428 158.851C235.266 158.851 235.105 158.851 234.944 158.851C234.783 158.851 234.622 158.851 234.462 158.851C234.301 158.851 234.141 158.851 233.981 158.851C233.821 158.851 233.662 158.851 233.502 158.851C233.343 158.851 233.183 158.851 233.025 158.851C232.866 158.851 232.707 158.851 232.549 158.851C232.39 158.851 232.232 158.851 232.074 158.851C231.916 158.851 231.758 158.851 231.601 158.851C231.444 158.851 231.286 158.851 231.129 158.851C230.973 158.851 230.816 158.851 230.659 158.851C230.503 158.851 230.347 158.851 230.191 158.851C230.035 158.851 229.879 158.851 229.724 158.851C229.569 158.851 229.413 158.851 229.258 158.851C229.104 158.851 228.949 158.851 228.794 158.851C228.64 158.851 228.486 158.851 228.332 158.851C228.178 158.851 228.024 158.851 227.871 158.851C227.717 158.851 227.564 158.851 227.411 158.851C227.258 158.851 227.106 158.851 226.953 158.851C226.801 158.851 226.648 158.851 226.497 158.851C226.345 158.851 226.193 158.851 226.041 158.851C225.89 158.851 225.739 158.851 225.588 158.851C225.437 158.851 225.286 158.851 225.135 158.851C224.985 158.851 224.835 158.851 224.685 158.851C224.535 158.851 224.385 158.851 224.235 158.851C224.086 158.851 223.936 158.851 223.787 158.851C223.638 158.851 223.49 158.851 223.341 158.851C223.192 158.851 223.044 158.851 222.896 158.851C222.748 158.851 222.6 158.851 222.452 158.851C222.305 158.851 222.157 158.851 222.01 158.851C221.863 158.851 221.716 158.851 221.57 158.851C221.423 158.851 221.277 158.851 221.13 158.851C220.984 158.851 220.838 158.851 220.693 158.851C220.547 158.851 220.401 158.851 220.256 158.851C220.111 158.851 219.966 158.851 219.821 158.851C219.676 158.851 219.532 158.851 219.388 158.851C219.243 158.851 219.099 158.851 218.955 158.851C218.812 158.851 218.668 158.851 218.525 158.851C218.381 158.851 218.238 158.851 218.095 158.851C217.952 158.851 217.81 158.851 217.667 158.851C217.525 158.851 217.383 158.851 217.241 158.851C217.099 158.851 216.957 158.851 216.815 158.851C216.674 158.851 216.533 158.851 216.392 158.851C216.251 158.851 216.11 158.851 215.969 158.851C215.829 158.851 215.688 158.851 215.548 158.851C215.408 158.851 215.268 158.851 215.129 158.851C214.989 158.851 214.849 158.851 214.71 158.851C214.571 158.851 214.432 158.851 214.293 158.851C214.155 158.851 214.016 158.851 213.878 158.851C213.739 158.851 213.601 158.851 213.464 158.851C213.326 158.851 213.188 158.851 213.051 158.851C212.913 158.851 212.776 158.851 212.639 158.851C212.502 158.851 212.366 158.851 212.229 158.851C212.093 158.851 211.956 158.851 211.82 158.851C211.684 158.851 211.549 158.851 211.413 158.851C211.277 158.851 211.142 158.851 211.007 158.851C210.872 158.851 210.737 158.851 210.602 158.851C210.467 158.851 210.333 158.851 210.199 158.851C210.064 158.851 209.93 158.851 209.797 158.851C209.663 158.851 209.529 158.851 209.396 158.851C209.262 158.851 209.129 158.851 208.996 158.851C208.863 158.851 208.731 158.851 208.598 158.851C208.466 158.851 208.333 158.851 208.201 158.851C208.069 158.851 207.938 158.851 207.806 158.851C207.674 158.851 207.543 158.851 207.412 158.851C207.281 158.851 207.15 158.851 207.019 158.851C206.888 158.851 206.758 158.851 206.627 158.851C206.497 158.851 206.367 158.851 206.237 158.851C206.107 158.851 205.977 158.851 205.848 158.851C205.718 158.851 205.589 158.851 205.46 158.851C205.331 158.851 205.202 158.851 205.074 158.851C204.945 158.851 204.817 158.851 204.689 158.851C204.56 158.851 204.433 158.851 204.305 158.851C204.177 158.851 204.05 158.851 203.922 158.851C203.795 158.851 203.668 158.851 203.541 158.851C203.414 158.851 203.287 158.851 203.161 158.851C203.034 158.851 202.908 158.851 202.782 158.851C202.656 158.851 202.53 158.851 202.405 158.851C202.279 158.851 202.153 158.851 202.028 158.851C201.903 158.851 201.778 158.851 201.653 158.851C201.528 158.851 201.404 158.851 201.279 158.851C201.155 158.851 201.031 158.851 200.907 158.851C200.783 158.851 200.659 158.851 200.536 158.851C200.412 158.851 200.289 158.851 200.166 158.851C200.042 158.851 199.92 158.851 199.797 158.851C199.674 158.851 199.552 158.851 199.429 158.851C199.307 158.851 199.185 158.851 199.063 158.851C198.941 158.851 198.819 158.851 198.698 158.851C198.576 158.851 198.455 158.851 198.334 158.851C198.213 158.851 198.092 158.851 197.971 158.851C197.851 158.851 197.73 158.851 197.61 158.851C197.489 158.851 197.369 158.851 197.249 158.851C197.13 158.851 197.01 158.851 196.89 158.851C196.771 158.851 196.652 158.851 196.533 158.851C196.413 158.851 196.295 158.851 196.176 158.851C196.057 158.851 195.939 158.851 195.82 158.851C195.702 158.851 195.584 158.851 195.466 158.851C195.348 158.851 195.231 158.851 195.113 158.851C194.996 158.851 194.878 158.851 194.761 158.851C194.644 158.851 194.527 158.851 194.411 158.851C194.294 158.851 194.177 158.851 194.061 158.851C193.945 158.851 193.829 158.851 193.713 158.851C193.597 158.851 193.481 158.851 193.365 158.851C193.25 158.851 193.135 158.851 193.019 158.851C192.904 158.851 192.789 158.851 192.675 158.851C192.56 158.851 192.445 158.851 192.331 158.851C192.216 158.851 192.102 158.851 191.988 158.851C191.874 158.851 191.76 158.851 191.647 158.851C191.533 158.851 191.42 158.851 191.307 158.851C191.193 158.851 191.08 158.851 190.967 158.851C190.855 158.851 190.742 158.851 190.63 158.851C190.517 158.851 190.405 158.851 190.293 158.851C190.181 158.851 190.069 158.851 189.957 158.851C189.845 158.851 189.734 158.851 189.622 158.851C189.511 158.851 189.4 158.851 189.289 158.851C189.178 158.851 189.067 158.851 188.957 158.851C188.846 158.851 188.736 158.851 188.625 158.851C188.515 158.851 188.405 158.851 188.295 158.851C188.186 158.851 188.076 158.851 187.966 158.851C187.857 158.851 187.748 158.851 187.639 158.851C187.529 158.851 187.421 158.851 187.312 158.851C187.203 158.851 187.095 158.851 186.986 158.851C186.878 158.851 186.77 158.851 186.662 158.851C186.554 158.851 186.446 158.851 186.338 158.851C186.23 158.851 186.123 158.851 186.016 158.851C185.908 158.851 185.801 158.851 185.694 158.851C185.588 158.851 185.481 158.851 185.374 158.851C185.268 158.851 185.161 158.851 185.055 158.851C184.949 158.851 184.843 158.851 184.737 158.851C184.631 158.851 184.526 158.851 184.42 158.851C184.315 158.851 184.209 158.851 184.104 158.851C183.999 158.851 183.894 158.851 183.789 158.851C183.685 158.851 183.58 158.851 183.475 158.851C183.371 158.851 183.267 158.851 183.163 158.851C183.059 158.851 182.955 158.851 182.851 158.851C182.747 158.851 182.644 158.851 182.54 158.851C182.437 158.851 182.334 158.851 182.231 158.851C182.128 158.851 182.025 158.851 181.922 158.851C181.82 158.851 181.717 158.851 181.615 158.851C181.512 158.851 181.41 158.851 181.308 158.851C181.206 158.851 181.105 158.851 181.003 158.851C180.901 158.851 180.8 158.851 180.699 158.851C180.597 158.851 180.496 158.851 180.395 158.851C180.294 158.851 180.193 158.851 180.093 158.851C179.992 158.851 179.892 158.851 179.791 158.851C179.691 158.851 179.591 158.851 179.491 158.851C179.391 158.851 179.291 158.851 179.192 158.851C179.092 158.851 178.993 158.851 178.893 158.851C178.794 158.851 178.695 158.851 178.596 158.851C178.497 158.851 178.398 158.851 178.3 158.851C178.201 158.851 178.103 158.851 178.005 158.851C177.906 158.851 177.808 158.851 177.71 158.851C177.612 158.851 177.514 158.851 177.417 158.851C177.319 158.851 177.222 158.851 177.124 158.851C177.027 158.851 176.93 158.851 176.833 158.851C176.736 158.851 176.639 158.851 176.543 158.851C176.446 158.851 176.35 158.851 176.253 158.851C176.157 158.851 176.061 158.851 175.965 158.851C175.869 158.851 175.773 158.851 175.677 158.851C175.582 158.851 175.486 158.851 175.391 158.851C175.295 158.851 175.2 158.851 175.105 158.851C175.01 158.851 174.915 158.851 174.821 158.851C174.726 158.851 174.631 158.851 174.537 158.851C174.443 158.851 174.348 158.851 174.254 158.851C174.16 158.851 174.066 158.851 173.973 158.851C173.879 158.851 173.785 158.851 173.692 158.851C173.598 158.851 173.505 158.851 173.412 158.851C173.319 158.851 173.226 158.851 173.133 158.851C173.04 158.851 172.947 158.851 172.855 158.851C172.762 158.851 172.67 158.851 172.578 158.851C172.486 158.851 172.394 158.851 172.302 158.851C172.21 158.851 172.118 158.851 172.026 158.851C171.935 158.851 171.843 158.851 171.752 158.851C171.661 158.851 171.57 158.851 171.479 158.851C171.388 158.851 171.297 158.851 171.206 158.851C171.115 158.851 171.025 158.851 170.934 158.851C170.844 158.851 170.754 158.851 170.664 158.851C170.574 158.851 170.484 158.851 170.394 158.851C170.304 158.851 170.215 158.851 170.125 158.851C170.036 158.851 169.946 158.851 169.857 158.851C169.768 158.851 169.679 158.851 169.59 158.851C169.501 158.851 169.412 158.851 169.324 158.851C169.235 158.851 169.147 158.851 169.058 158.851C168.97 158.851 168.882 158.851 168.794 158.851C168.706 158.851 168.618 158.851 168.53 158.851C168.442 158.851 168.355 158.851 168.267 158.851C168.18 158.851 168.093 158.851 168.005 158.851C167.918 158.851 167.831 158.851 167.744 158.851C167.658 158.851 167.571 158.851 167.484 158.851C167.398 158.851 167.311 158.851 167.225 158.851C167.139 158.851 167.052 158.851 166.966 158.851C166.88 158.851 166.794 158.851 166.709 158.851C166.623 158.851 166.537 158.851 166.452 158.851C166.367 158.851 166.281 158.851 166.196 158.851C166.111 158.851 166.026 158.851 165.941 158.851C165.856 158.851 165.771 158.851 165.687 158.851C165.602 158.851 165.518 158.851 165.433 158.851C165.349 158.851 165.265 158.851 165.181 158.851C165.096 158.851 165.013 158.851 164.929 158.851C164.845 158.851 164.761 158.851 164.678 158.851C164.594 158.851 164.511 158.851 164.428 158.851C164.344 158.851 164.261 158.851 164.178 158.851C164.095 158.851 164.012 158.851 163.93 158.851C163.847 158.851 163.764 158.851 163.682 158.851C163.599 158.851 163.517 158.851 163.435 158.851C163.353 158.851 163.271 158.851 163.189 158.851C163.107 158.851 163.025 158.851 162.943 158.851C162.862 158.851 162.78 158.851 162.699 158.851C162.617 158.851 162.536 158.851 162.455 158.851C162.374 158.851 162.293 158.851 162.212 158.851C162.131 158.851 162.05 158.851 161.97 158.851C161.889 158.851 161.809 158.851 161.728 158.851C161.648 158.851 161.568 158.851 161.488 158.851C161.408 158.851 161.328 158.851 161.248 158.851C161.168 158.851 161.088 158.851 161.009 158.851C160.929 158.851 160.85 158.851 160.77 158.851C160.691 158.851 160.612 158.851 160.533 158.851C160.453 158.851 160.374 158.851 160.296 158.851C160.217 158.851 160.138 158.851 160.059 158.851C159.981 158.851 159.902 158.851 159.824 158.851C159.746 158.851 159.668 158.851 159.589 158.851C159.511 158.851 159.433 158.851 159.356 158.851C159.278 158.851 159.2 158.851 159.122 158.851C159.045 158.851 158.967 158.851 158.89 158.851C158.813 158.851 158.735 158.851 158.658 158.851C158.581 158.851 158.504 158.851 158.427 158.851C158.35 158.851 158.274 158.851 158.197 158.851C158.12 158.851 158.044 158.851 157.967 158.851C157.891 158.851 157.815 158.851 157.738 158.851C157.662 158.851 157.586 158.851 157.51 158.851C157.434 158.851 157.359 158.851 157.283 158.851C157.207 158.851 157.132 158.851 157.056 158.851C156.981 158.851 156.905 158.851 156.83 158.851C156.755 158.851 156.68 158.851 156.605 158.851C156.53 158.851 156.455 158.851 156.38 158.851C156.305 158.851 156.231 158.851 156.156 158.851C156.082 158.851 156.007 158.851 155.933 158.851C155.858 158.851 155.784 158.851 155.71 158.851C155.636 158.851 155.562 158.851 155.488 158.851C155.414 158.851 155.341 158.851 155.267 158.851C155.193 158.851 155.12 158.851 155.046 158.851C154.973 158.851 154.9 158.851 154.826 158.851C154.753 158.851 154.68 158.851 154.607 158.851C154.534 158.851 154.461 158.851 154.389 158.851C154.316 158.851 154.243 158.851 154.171 158.851C154.098 158.851 154.026 158.851 153.953 158.851C153.881 158.851 153.809 158.851 153.737 158.851C153.665 158.851 153.593 158.851 153.521 158.851C153.449 158.851 153.377 158.851 153.305 158.851C153.234 158.851 153.162 158.851 153.091 158.851C153.019 158.851 152.948 158.851 152.876 158.851C152.805 158.851 152.734 158.851 152.663 158.851C152.592 158.851 152.521 158.851 152.45 158.851C152.379 158.851 152.309 158.851 152.238 158.851C152.167 158.851 152.097 158.851 152.026 158.851C151.956 158.851 151.886 158.851 151.815 158.851C151.745 158.851 151.675 158.851 151.605 158.851C151.535 158.851 151.465 158.851 151.395 158.851C151.325 158.851 151.256 158.851 151.186 158.851C151.116 158.851 151.047 158.851 150.977 158.851C150.908 158.851 150.839 158.851 150.769 158.851C150.7 158.851 150.631 158.851 150.562 158.851C150.493 158.851 150.424 158.851 150.355 158.851C150.286 158.851 150.218 158.851 150.149 158.851C150.08 158.851 150.012 158.851 149.943 158.851C149.875 158.851 149.807 158.851 149.738 158.851C149.67 158.851 149.602 158.851 149.534 158.851C149.466 158.851 149.398 158.851 149.33 158.851C149.262 158.851 149.194 158.851 149.127 158.851C149.059 158.851 148.991 158.851 148.924 158.851C148.856 158.851 148.789 158.851 148.722 158.851C148.654 158.851 148.587 158.851 148.52 158.851C148.453 158.851 148.386 158.851 148.319 158.851C148.252 158.851 148.185 158.851 148.118 158.851C148.051 158.851 147.985 158.851 147.918 158.851C147.852 158.851 147.785 158.851 147.719 158.851C147.652 158.851 147.586 158.851 147.52 158.851C147.454 158.851 147.387 158.851 147.321 158.851C147.255 158.851 147.189 158.851 147.124 158.851C147.058 158.851 146.992 158.851 146.926 158.851C146.861 158.851 146.795 158.851 146.729 158.851C146.664 158.851 146.598 158.851 146.533 158.851C146.468 158.851 146.402 158.851 146.337 158.851C146.272 158.851 146.207 158.851 146.142 158.851C146.077 158.851 146.012 158.851 145.947 158.851C145.882 158.851 145.818 158.851 145.753 158.851C145.688 158.851 145.624 158.851 145.559 158.851C145.495 158.851 145.43 158.851 145.366 158.851C145.302 158.851 145.237 158.851 145.173 158.851C145.109 158.851 145.045 158.851 144.981 158.851C144.917 158.851 144.853 158.851 144.789 158.851C144.725 158.851 144.662 158.851 144.598 158.851C144.534 158.851 144.471 158.851 144.407 158.851C144.344 158.851 144.28 158.851 144.217 158.851C144.153 158.851 144.09 158.851 144.027 158.851C143.964 158.851 143.901 158.851 143.837 158.851C143.774 158.851 143.711 158.851 143.649 158.851C143.586 158.851 143.523 158.851 143.46 158.851C143.397 158.851 143.335 158.851 143.272 158.851C143.209 158.851 143.147 158.851 143.084 158.851C143.022 158.851 142.96 158.851 142.897 158.851C142.835 158.851 142.773 158.851 142.711 158.851C142.649 158.851 142.586 158.851 142.524 158.851C142.462 158.851 142.401 158.851 142.339 158.851C142.277 158.851 142.215 158.851 142.153 158.851C142.092 158.851 142.03 158.851 141.968 158.851C141.907 158.851 141.845 158.851 141.784 158.851C141.723 158.851 141.661 158.851 141.6 158.851C141.539 158.851 141.477 158.851 141.416 158.851C141.355 158.851 141.294 158.851 141.233 158.851C141.172 158.851 141.111 158.851 141.05 158.851C140.989 158.851 140.929 158.851 140.868 158.851C140.807 158.851 140.746 158.851 140.686 158.851C140.625 158.851 140.565 158.851 140.504 158.851C140.444 158.851 140.383 158.851 140.323 158.851C140.263 158.851 140.203 158.851 140.142 158.851C140.082 158.851 140.022 158.851 139.962 158.851C139.902 158.851 139.842 158.851 139.782 158.851C139.722 158.851 139.662 158.851 139.602 158.851C139.543 158.851 139.483 158.851 139.423 158.851C139.363 158.851 139.304 158.851 139.244 158.851C139.185 158.851 139.125 158.851 139.066 158.851C139.006 158.851 138.947 158.851 138.888 158.851C138.828 158.851 138.769 158.851 138.71 158.851C138.651 158.851 138.592 158.851 138.533 158.851C138.473 158.851 138.414 158.851 138.356 158.851C138.297 158.851 138.238 158.851 138.179 158.851C138.12 158.851 138.061 158.851 138.003 158.851C137.944 158.851 137.885 158.851 137.827 158.851C137.768 158.851 137.709 158.851 137.651 158.851C137.592 158.851 137.534 158.851 137.476 158.851C137.417 158.851 137.359 158.851 137.301 158.851C137.243 158.851 137.184 158.851 137.126 158.851C137.068 158.851 137.01 158.851 136.952 158.851C136.894 158.851 136.836 158.851 136.778 158.851C136.72 158.851 136.662 158.851 136.604 158.851C136.547 158.851 136.489 158.851 136.431 158.851C136.373 158.851 136.316 158.851 136.258 158.851C136.2 158.851 136.143 158.851 136.085 158.851C136.028 158.851 135.97 158.851 135.913 158.851C135.856 158.851 135.798 158.851 135.741 158.851C135.684 158.851 135.626 158.851 135.569 158.851C135.512 158.851 135.455 158.851 135.398 158.851C135.341 158.851 135.284 158.851 135.227 158.851C135.17 158.851 135.113 158.851 135.056 158.851C134.999 158.851 134.942 158.851 134.885 158.851C134.828 158.851 134.772 158.851 134.715 158.851C134.658 158.851 134.602 158.851 134.545 158.851C134.488 158.851 134.432 158.851 134.375 158.851C134.319 158.851 134.262 158.851 134.206 158.851C134.149 158.851 134.093 158.851 134.037 158.851C133.98 158.851 133.924 158.851 133.868 158.851C133.811 158.851 133.755 158.851 133.699 158.851C133.643 158.851 133.587 158.851 133.531 158.851C133.474 158.851 133.418 158.851 133.362 158.851C133.306 158.851 133.25 158.851 133.194 158.851C133.139 158.851 133.083 158.851 133.027 158.851C132.971 158.851 132.915 158.851 132.859 158.851C132.804 158.851 132.748 158.851 132.692 158.851C132.637 158.851 132.581 158.851 132.525 158.851C132.47 158.851 132.414 158.851 132.359 158.851C132.303 158.851 132.248 158.851 132.192 158.851C132.137 158.851 132.081 158.851 132.026 158.851C131.971 158.851 131.915 158.851 131.86 158.851C131.805 158.851 131.749 158.851 131.694 158.851C131.639 158.851 131.584 158.851 131.529 158.851C131.473 158.851 131.418 158.851 131.363 158.851C131.308 158.851 131.253 158.851 131.198 158.851C131.143 158.851 131.088 158.851 131.033 158.851C130.978 158.851 130.923 158.851 130.868 158.851C130.813 158.851 130.758 158.851 130.704 158.851C130.649 158.851 130.594 158.851 130.539 158.851C130.485 158.851 130.43 158.851 130.375 158.851C130.32 158.851 130.266 158.851 130.211 158.851C130.156 158.851 130.102 158.851 130.047 158.851C129.993 158.851 129.938 158.851 129.884 158.851C129.829 158.851 129.775 158.851 129.72 158.851C129.666 158.851 129.611 158.851 129.557 158.851C129.503 158.851 129.448 158.851 129.394 158.851C129.339 158.851 129.285 158.851 129.231 158.851C129.177 158.851 129.122 158.851 129.068 158.851C129.014 158.851 128.96 158.851 128.905 158.851C128.851 158.851 128.797 158.851 128.743 158.851C128.689 158.851 128.635 158.851 128.581 158.851C128.526 158.851 128.472 158.851 128.418 158.851C128.364 158.851 128.31 158.851 128.256 158.851C128.202 158.851 128.148 158.851 128.094 158.851C128.04 158.851 127.987 158.851 127.933 158.851C127.879 158.851 127.825 158.851 127.771 158.851C127.717 158.851 127.663 158.851 127.609 158.851C127.556 158.851 127.502 158.851 127.448 158.851C127.394 158.851 127.341 158.851 127.287 158.851C127.233 158.851 127.179 158.851 127.126 158.851C127.072 158.851 127.018 158.851 126.965 158.851C126.911 158.851 126.857 158.851 126.804 158.851C126.75 158.851 126.696 158.851 126.643 158.851C126.589 158.851 126.536 158.851 126.482 158.851C126.429 158.851 126.375 158.851 126.322 158.851C126.268 158.851 126.215 158.851 126.161 158.851C126.108 158.851 126.054 158.851 126.001 158.851C125.947 158.851 125.894 158.851 125.84 158.851C125.787 158.851 125.733 158.851 125.68 158.851C125.627 158.851 125.573 158.851 125.52 158.851C125.466 158.851 125.413 158.851 125.36 158.851C125.306 158.851 125.253 158.851 125.2 158.851C125.146 158.851 125.093 158.851 125.04 158.851C124.986 158.851 124.933 158.851 124.88 158.851C124.826 158.851 124.773 158.851 124.72 158.851C124.667 158.851 124.613 158.851 124.56 158.851C124.507 158.851 124.454 158.851 124.4 158.851C124.347 158.851 124.294 158.851 124.241 158.851C124.188 158.851 124.134 158.851 124.081 158.851C124.028 158.851 123.975 158.851 123.922 158.851C123.868 158.851 123.815 158.851 123.762 158.851C123.709 158.851 123.656 158.851 123.603 158.851C123.549 158.851 123.496 158.851 123.443 158.851C123.39 158.851 123.337 158.851 123.284 158.851C123.23 158.851 123.177 158.851 123.124 158.851C123.071 158.851 123.018 158.851 122.965 158.851C122.912 158.851 122.859 158.851 122.805 158.851C122.752 158.851 122.699 158.851 122.646 158.851C122.593 158.851 122.54 158.851 122.487 158.851C122.434 158.851 122.381 158.851 122.327 158.851C122.274 158.851 122.221 158.851 122.168 158.851C122.115 158.851 122.062 158.851 122.009 158.851C121.956 158.851 121.903 158.851 121.849 158.851C121.796 158.851 121.743 158.851 121.69 158.851C121.637 158.851 121.584 158.851 121.531 158.851C121.478 158.851 121.425 158.851 121.371 158.851C121.318 158.851 121.265 158.851 121.212 158.851C121.159 158.851 121.106 158.851 121.053 158.851C121 158.851 120.946 158.851 120.893 158.851C120.84 158.851 120.787 158.851 120.734 158.851C120.681 158.851 120.627 158.851 120.574 158.851C120.521 158.851 120.468 158.851 120.415 158.851C120.362 158.851 120.308 158.851 120.255 158.851C120.202 158.851 120.149 158.851 120.096 158.851C120.042 158.851 119.989 158.851 119.936 158.851C119.883 158.851 119.83 158.851 119.776 158.851C119.723 158.851 119.67 158.851 119.617 158.851C119.563 158.851 119.51 158.851 119.457 158.851C119.403 158.851 119.35 158.851 119.297 158.851C119.244 158.851 119.19 158.851 119.137 158.851C119.084 158.851 119.03 158.851 118.977 158.851C118.924 158.851 118.87 158.851 118.817 158.851C118.763 158.851 118.71 158.851 118.657 158.851C118.603 158.851 118.55 158.851 118.496 158.851C118.443 158.851 118.39 158.851 118.336 158.851C118.283 158.851 118.229 158.851 118.176 158.851C118.122 158.851 118.069 158.851 118.015 158.851C117.962 158.851 117.908 158.851 117.855 158.851C117.801 158.851 117.748 158.851 117.694 158.851C117.64 158.851 117.587 158.851 117.533 158.851C117.48 158.851 117.426 158.851 117.372 158.851C117.319 158.851 117.265 158.851 117.211 158.851C117.158 158.851 117.104 158.851 117.05 158.851C116.997 158.851 116.943 158.851 116.889 158.851C116.835 158.851 116.781 158.851 116.728 158.851C116.674 158.851 116.62 158.851 116.566 158.851C116.512 158.851 116.459 158.851 116.405 158.851C116.351 158.851 116.297 158.851 116.243 158.851C116.189 158.851 116.135 158.851 116.081 158.851C116.027 158.851 115.973 158.851 115.919 158.851C115.865 158.851 115.811 158.851 115.757 158.851C115.703 158.851 115.649 158.851 115.595 158.851C115.541 158.851 115.486 158.851 115.432 158.851C115.378 158.851 115.324 158.851 115.27 158.851C115.215 158.851 115.161 158.851 115.107 158.851C115.053 158.851 114.998 158.851 114.944 158.851C114.89 158.851 114.835 158.851 114.781 158.851C114.727 158.851 114.672 158.851 114.618 158.851C114.563 158.851 114.509 158.851 114.454 158.851C114.4 158.851 114.345 158.851 114.291 158.851C114.236 158.851 114.182 158.851 114.127 158.851C114.073 158.851 114.018 158.851 113.963 158.851C113.909 158.851 113.854 158.851 113.799 158.851C113.744 158.851 113.69 158.851 113.635 158.851C113.58 158.851 113.525 158.851 113.47 158.851C113.416 158.851 113.361 158.851 113.306 158.851C113.251 158.851 113.196 158.851 113.141 158.851C113.086 158.851 113.031 158.851 112.976 158.851C112.921 158.851 112.866 158.851 112.81 158.851C112.755 158.851 112.7 158.851 112.645 158.851C112.59 158.851 112.535 158.851 112.479 158.851C112.424 158.851 112.369 158.851 112.313 158.851C112.258 158.851 112.203 158.851 112.147 158.851C112.092 158.851 112.036 158.851 111.981 158.851C111.925 158.851 111.87 158.851 111.814 158.851C111.759 158.851 111.703 158.851 111.647 158.851C111.592 158.851 111.536 158.851 111.48 158.851V167.618ZM108.884 40.0194C108.839 40.5979 108.476 41.725 107.176 42.3566C106.509 42.6809 105.71 42.7929 104.922 42.6118C104.148 42.4339 103.625 42.0321 103.335 41.7161L109.791 35.7848C108.256 34.1142 105.727 33.3139 103.345 34.4711C101.253 35.4876 100.283 37.5341 100.143 39.3423L108.884 40.0194Z" fill="white"/>
</svg>
