<svg width="68" height="69" viewBox="0 0 68 69" fill="none" xmlns="http://www.w3.org/2000/svg">
<g clip-path="url(#clip0_520_3867)">
<path d="M62.9664 0.46582H5.02031C2.24453 0.46582 0 2.65723 0 5.3666V63.5518C0 66.2611 2.24453 68.4658 5.02031 68.4658H62.9664C65.7422 68.4658 68 66.2611 68 63.565V5.3666C68 2.65723 65.7422 0.46582 62.9664 0.46582ZM20.1742 58.4119H10.0805V25.9525H20.1742V58.4119ZM15.1273 21.5299C11.8867 21.5299 9.27031 18.9135 9.27031 15.6861C9.27031 12.4588 11.8867 9.84238 15.1273 9.84238C18.3547 9.84238 20.9711 12.4588 20.9711 15.6861C20.9711 18.9002 18.3547 21.5299 15.1273 21.5299ZM57.9461 58.4119H47.8656V42.6338C47.8656 38.8752 47.7992 34.0275 42.6195 34.0275C37.3734 34.0275 36.5766 38.1314 36.5766 42.3682V58.4119H26.5094V25.9525H36.1781V30.3885H36.3109C37.6523 27.8385 40.9461 25.1424 45.8469 25.1424C56.0602 25.1424 57.9461 31.8627 57.9461 40.6018V58.4119Z" fill="white"/>
</g>
<defs>
<clipPath id="clip0_520_3867">
<rect width="68" height="68" fill="white" transform="translate(0 0.46582)"/>
</clipPath>
</defs>
</svg>
