<svg width="68" height="69" viewBox="0 0 68 69" fill="none" xmlns="http://www.w3.org/2000/svg">
<g clip-path="url(#clip0_520_3868)">
<path d="M21.3921 62.0909C47.0462 62.0909 61.0818 40.8316 61.0818 22.4012C61.0818 21.8036 61.0685 21.1926 61.042 20.595C63.7723 18.6204 66.1286 16.1747 68 13.3726C65.4571 14.504 62.7573 15.2429 59.9927 15.564C62.9036 13.8192 65.0832 11.0781 66.1273 7.84895C63.3889 9.47186 60.3941 10.6167 57.2714 11.2343C55.1674 8.9987 52.3855 7.51844 49.3558 7.02242C46.3261 6.5264 43.2174 7.04225 40.5103 8.49022C37.8032 9.93818 35.6484 12.2376 34.3792 15.033C33.11 17.8284 32.797 20.964 33.4887 23.9551C27.9437 23.6769 22.5192 22.2364 17.5666 19.7272C12.6141 17.218 8.24413 13.696 4.74008 9.38957C2.95913 12.4601 2.41416 16.0936 3.21592 19.5515C4.01768 23.0095 6.10601 26.0324 9.05648 28.0059C6.84145 27.9356 4.67493 27.3392 2.73594 26.2661V26.4387C2.73395 29.661 3.84794 32.7846 5.88854 35.2785C7.92914 37.7723 10.7704 39.4825 13.9294 40.1184C11.8775 40.6798 9.72395 40.7616 7.63539 40.3575C8.52679 43.1287 10.2611 45.5525 12.5963 47.2906C14.9316 49.0286 17.7512 49.9943 20.6616 50.0528C15.7205 53.9341 9.61683 56.0393 3.33359 56.0293C2.21931 56.0276 1.10613 55.9593 0 55.8248C6.38309 59.9199 13.8083 62.0949 21.3921 62.0909Z" fill="white"/>
</g>
<defs>
<clipPath id="clip0_520_3868">
<rect width="68" height="68" fill="white" transform="translate(0 0.46582)"/>
</clipPath>
</defs>
</svg>
